<svg id="Capa_1" enable-background="new 0 0 512 512" height="512" viewBox="0 0 512 512" width="512" xmlns="http://www.w3.org/2000/svg"><g><path d="m75 0c-41.353 0-75 33.647-75 75 0 36.211 26.235 63.461 49.395 86.605 20.888 20.889 40.605 40.606 40.605 64.395 0 8.276-6.724 15-15 15s-15-6.724-15-15v-15h-30v15c0 24.814 20.186 45 45 45s45-20.186 45-45c0-36.211-26.235-62.461-49.395-85.605-20.888-20.889-40.605-41.606-40.605-65.395 0-24.814 20.186-45 45-45s45 20.186 45 45c0 8.291 6.709 15 15 15s15-6.709 15-15c0-41.353-33.647-75-75-75z" fill="#fabe2c"/><path d="m452 211v15c0 8.276-6.724 15-15 15s-15-6.724-15-15c0-23.789 19.717-43.506 40.605-64.395 23.16-23.144 49.395-50.394 49.395-86.605 0-41.353-33.647-75-75-75s-75 33.647-75 75c0 8.291 6.709 15 15 15s15-6.709 15-15c0-24.814 20.186-45 45-45s45 20.186 45 45c0 23.789-19.717 44.506-40.605 65.395-23.16 23.144-49.395 49.394-49.395 85.605 0 24.814 20.186 45 45 45s45-20.186 45-45v-15z" fill="#ff9100"/><path d="m392 136v-136h-136-136v136c0 57.671 37.46 108.457 91 127.324v69.185c-34.189 6.973-60 37.266-60 73.491v61h105 105v-61c0-36.226-25.811-66.519-60-73.491v-69.185c53.54-18.867 91-69.653 91-127.324z" fill="#fed843"/><path d="m361 406c0-36.226-25.811-66.519-60-73.491v-69.185c53.54-18.867 91-69.653 91-127.324v-136h-136v467h105z" fill="#fabe2c"/><path d="m391 421h-135-135v91h135 135z" fill="#fabe2c"/><path d="m256 421h135v91h-135z" fill="#ff9100"/></g></svg>